<svg width="286" height="178" viewBox="0 0 286 178" fill="none" xmlns="http://www.w3.org/2000/svg">
<path d="M231.626 70.262C223.515 70.262 215.849 72.076 208.941 75.2617L184.874 41.4581L188.083 29.8215C188.083 29.8215 202.567 32.2107 203.503 31.6798C209.386 28.1844 211.214 21.2821 210.412 18.0964C209.297 13.4064 202.969 8.45088 202.166 8.53937L158.177 12.079L157.91 19.1141L175.069 26.5916L171.414 39.5555L100.639 39.6883L107.369 18.3177C107.235 14.6895 103.759 11.0614 100.683 10.2649C107.101 10.1322 113.519 9.99949 119.937 9.86675L121.185 9.1588L121.987 7.43323L122.478 5.30946L122.255 2.96445L121.586 1.23887L120.205 0.221174L118.556 0L73.2293 2.03526L71.803 3.80512L71.2682 6.50411L72.2487 9.1588L74.5663 10.2207H86.2432C90.1207 11.2384 94.0874 14.2471 94.5331 19.7778C88.6054 37.9185 82.6332 56.0149 76.661 74.1114C76.8838 73.4034 52.1928 61.3243 26.967 76.4121C7.66875 87.9602 1.74107 103.579 0.181169 118.224C-0.309087 122.914 0.270317 127.648 1.02798 132.339C2.40961 141.143 7.53497 153.488 17.5629 162.558C30.0421 173.841 50.7667 179.15 65.2961 175.39C67.8365 174.726 70.2876 174.372 72.5606 173.575C94.7113 165.655 104.561 150.037 108.037 129.241C109.954 117.737 106.299 104.597 100.55 95.2165C94.7558 85.8364 87.5804 80.0403 87.5804 80.0403L93.1068 62.8287L152.249 131.763L177.342 131.586C177.698 131.631 177.921 131.896 178.144 132.25C182.11 158.134 204.529 178 231.715 178C261.71 178 286 153.886 286 124.109C286 94.3315 261.71 70.2177 231.715 70.2177L231.626 70.262ZM94.0874 126.941C91.6361 146.674 79.1123 159.284 61.1066 162.691C43.1008 166.054 25.2734 155.258 17.7858 140.966C10.2983 126.675 11.5016 102.163 31.7803 88.9336C52.0145 75.7484 72.7389 86.5886 72.7389 86.5886C72.7389 86.5886 72.2487 88.8451 70.0203 93.8006C67.4353 98.5349 55.7138 118.844 50.4992 124.728C49.0285 126.365 50.4991 128.932 52.5047 130.392C53.9755 131.409 55.7582 131.586 57.0953 131.586C59.3237 131.542 60.5717 129.595 60.6609 129.595C61.6414 129.374 74.2098 111.587 78.934 102.296C79.7363 100.747 82.2321 94.9068 82.2321 94.5528C82.2321 93.0927 96.5833 107.119 94.132 126.852L94.0874 126.941ZM206.222 92.5618L225.253 119.286L191.247 119.065C192.629 108.357 198.155 98.9774 206.222 92.606V92.5618ZM99.2573 50.5285L167.982 50.4399C169.497 50.4399 152.205 111.853 152.205 111.853L99.2573 50.5285ZM162.589 119.33L180.551 56.6343L198.378 81.5888C186.746 90.5264 178.901 104.021 177.564 119.419L162.545 119.33H162.589ZM231.626 164.594C211.838 164.594 195.347 150.568 191.693 131.985L237.064 131.763C238.623 132.117 240.094 131.896 241.253 131.055C244.016 129.109 244.239 124.728 240.897 120.083L216.919 86.4559C221.465 84.686 226.456 83.7127 231.626 83.7127C254.133 83.7127 272.362 101.809 272.362 124.153C272.362 146.497 254.133 164.594 231.626 164.594Z" fill="#FFB600"/>
</svg>
