<svg width="60" height="60" viewBox="0 0 60 60" fill="none" xmlns="http://www.w3.org/2000/svg">
<rect width="60" height="60" rx="30" fill="#191919"/>
<g clip-path="url(#clip0_22_497)">
<path d="M30.0012 17.7026C34.0052 17.7026 34.4814 17.7175 36.062 17.7898C37.5255 17.8571 38.3183 18.1015 38.8469 18.3059C39.4976 18.5453 40.0885 18.9292 40.5721 19.4278C41.0708 19.9115 41.4547 20.4999 41.694 21.1531C41.8985 21.6816 42.1428 22.4769 42.2101 23.9379C42.2824 25.5186 42.2974 25.9948 42.2974 29.9988C42.2974 34.0027 42.2824 34.4789 42.2101 36.0596C42.1428 37.5231 41.8985 38.3159 41.694 38.8444C41.1904 40.1533 40.1558 41.1855 38.8469 41.6916C38.3183 41.896 37.523 42.1404 36.062 42.2077C34.4814 42.28 34.0052 42.2949 30.0012 42.2949C25.9972 42.2949 25.521 42.28 23.9404 42.2077C22.4769 42.1404 21.6841 41.896 21.1555 41.6916C20.5048 41.4523 19.9139 41.0683 19.4303 40.5697C18.9316 40.086 18.5477 39.4976 18.3084 38.8444C18.1039 38.3159 17.8596 37.5206 17.7923 36.0596C17.72 34.4789 17.705 34.0027 17.705 29.9988C17.705 25.9948 17.72 25.5186 17.7923 23.9379C17.8596 22.4744 18.1039 21.6816 18.3084 21.1531C18.5477 20.5024 18.9316 19.9115 19.4303 19.4278C19.9139 18.9292 20.5023 18.5453 21.1555 18.3059C21.6841 18.1015 22.4794 17.8571 23.9404 17.7898C25.521 17.7175 25.9972 17.7026 30.0012 17.7026ZM30.0012 15C25.9274 15 25.4163 15.0175 23.8157 15.0898C22.2201 15.1621 21.1281 15.4164 20.1757 15.7878C19.176 16.1643 18.2685 16.7552 17.518 17.5181C16.7551 18.2685 16.1642 19.1735 15.7878 20.1758C15.4163 21.1306 15.1645 22.2201 15.0922 23.8158C15.0199 25.4164 15.0024 25.9274 15.0024 30.0012C15.0024 34.075 15.0199 34.5861 15.0922 36.1867C15.1645 37.7823 15.4188 38.8743 15.7903 39.8267C16.1667 40.8265 16.7576 41.734 17.5205 42.4844C18.271 43.2473 19.176 43.8382 20.1782 44.2147C21.1331 44.5861 22.2226 44.8379 23.8182 44.9127C25.4188 44.985 25.9299 45.0025 30.0037 45.0025C34.0775 45.0025 34.5886 44.985 36.1892 44.9127C37.7848 44.8404 38.8768 44.5861 39.8292 44.2147C41.8436 43.4343 43.4367 41.8437 44.2171 39.8267C44.5886 38.8719 44.8404 37.7823 44.9152 36.1867C44.9875 34.5861 45.0049 34.075 45.0049 30.0012C45.0049 25.9274 44.9875 25.4164 44.9152 23.8158C44.8429 22.2201 44.5886 21.1281 44.2171 20.1758C43.8406 19.176 43.2498 18.2685 42.4869 17.5181C41.7364 16.7552 40.8314 16.1643 39.8292 15.7878C38.8743 15.4164 37.7848 15.1645 36.1892 15.0922C34.5886 15.0199 34.0775 15.0025 30.0037 15.0025L30.0012 15Z" fill="#FFB600"/>
<path d="M30.0012 22.2974C25.7479 22.2974 22.2974 25.7454 22.2974 30.0012C22.2974 34.257 25.7454 37.705 30.0012 37.705C34.257 37.705 37.705 34.257 37.705 30.0012C37.705 25.7479 34.257 22.2974 30.0012 22.2974ZM30.0012 34.9999C27.2388 34.9999 25.0024 32.7611 25.0024 29.9987C25.0024 27.2363 27.2413 24.9999 30.0037 24.9999C32.7661 24.9999 35.0024 27.2388 35.0024 30.0012C35.0024 32.7636 32.7636 35.0024 30.0012 35.0024V34.9999Z" fill="#FFB600"/>
<path d="M38.0068 20.1931C39.0016 20.1931 39.8069 20.9984 39.8069 21.9932C39.8069 22.9879 39.0016 23.7932 38.0068 23.7932C37.0121 23.7932 36.2068 22.9879 36.2068 21.9932C36.2068 20.9984 37.0121 20.1931 38.0068 20.1931Z" fill="#FFB600"/>
</g>
<defs>
<clipPath id="clip0_22_497">
<rect width="30" height="30" fill="white" transform="translate(15 15)"/>
</clipPath>
</defs>
</svg>
