<svg width="60" height="60" viewBox="0 0 60 60" fill="none" xmlns="http://www.w3.org/2000/svg">
<rect width="60" height="60" rx="30" fill="#191919"/>
<path d="M41.2667 20.2716C41.0344 20.1543 40.8054 20.0239 40.5864 19.8805C39.9459 19.4633 39.3586 18.9744 38.8376 18.4203C37.5334 16.9536 37.0456 15.4641 36.8664 14.4243H36.873C36.7237 13.5606 36.7834 13 36.7934 13H30.8466V35.5776C30.8466 35.8807 30.8466 36.1806 30.8334 36.4772C30.8334 36.513 30.83 36.5489 30.8267 36.588C30.8267 36.6043 30.8267 36.6206 30.8234 36.6369V36.6499C30.6973 38.2959 29.7449 39.7691 28.2848 40.584C27.5348 41.0044 26.6886 41.2228 25.8257 41.2228C23.0548 41.2228 20.8115 39.0032 20.8115 36.2653C20.8115 33.5274 23.0548 31.3078 25.8257 31.3078C26.3501 31.3078 26.8711 31.3893 27.3688 31.549L27.3755 25.6039C24.3158 25.2161 21.2296 26.1026 18.8669 28.0485C17.8415 28.922 16.982 29.965 16.3216 31.1318C16.0694 31.5555 15.1236 33.2634 15.0075 36.0372C14.9345 37.6114 15.4156 39.2411 15.6446 39.9125V39.9256C15.7873 40.3232 16.3481 41.6758 17.2574 42.8166C17.9908 43.7325 18.8602 44.5376 19.8326 45.2025V45.1894L19.8458 45.2025C22.723 47.1222 25.9153 46.9984 25.9153 46.9984C26.4662 46.9756 28.3179 46.9984 30.4185 46.0206C32.7481 44.9352 34.0755 43.3218 34.0755 43.3218C34.9217 42.3571 35.5987 41.2554 36.0699 40.069C36.6075 38.6805 36.7867 37.015 36.7867 36.3468V24.3686C36.8597 24.411 37.8188 25.0336 37.8188 25.0336C37.8188 25.0336 39.2026 25.9038 41.3629 26.4709C42.9127 26.8751 45 26.9598 45 26.9598V21.1647C44.2699 21.2429 42.7832 21.0148 41.2634 20.2716H41.2667Z" fill="#FFB600"/>
</svg>
