<svg width="60" height="60" viewBox="0 0 60 60" fill="none" xmlns="http://www.w3.org/2000/svg">
<rect width="60" height="60" rx="30" fill="#191919"/>
<path d="M15.2288 43.8188H21.4089V24.3293H15.2288V43.8119V43.8188Z" fill="#FFB600"/>
<path d="M25.7668 23.761H31.9262L31.947 26.3799H32.0163C33.4089 24.8626 34.7876 23.761 37.1502 23.761C40.4342 23.761 45.0001 25.5485 45.0001 30.9803V43.8186H38.8199V32.8025C38.8199 30.8626 37.6005 29.0058 35.6121 29.0058C33.7622 29.0058 31.947 30.8695 31.947 32.8025V43.8186H25.7668V23.761Z" fill="#FFB600"/>
<path d="M18.3187 22.8188C20.1516 22.8188 21.6374 21.3329 21.6374 19.5001C21.6374 17.6672 20.1516 16.1814 18.3187 16.1814C16.4858 16.1814 15 17.6672 15 19.5001C15 21.3329 16.4858 22.8188 18.3187 22.8188Z" fill="#FFB600"/>
</svg>
