<svg width="364" height="184" viewBox="0 0 364 184" fill="none" xmlns="http://www.w3.org/2000/svg">
<path d="M77.1634 112.864C58.2264 112.864 42.8035 128.814 42.8035 148.399C42.8035 167.984 58.2264 183.985 77.1634 183.985C96.1003 183.985 111.523 167.984 111.523 148.399C111.523 128.814 96.0515 112.864 77.1634 112.864ZM78.2371 165.864C68.915 165.864 61.3012 158.04 61.3012 148.399C61.3012 138.758 68.8662 130.884 78.2371 130.884C87.608 130.884 95.1242 138.708 95.1242 148.399C95.1242 158.091 87.5592 165.864 78.2371 165.864Z" fill="#FFB600"/>
<path d="M288.594 112.864C269.608 112.864 254.186 128.814 254.186 148.399C254.186 167.984 269.608 183.985 288.594 183.985C307.58 183.985 322.954 167.984 322.954 148.399C322.954 128.814 307.531 112.864 288.594 112.864ZM288.301 165.864C278.979 165.864 271.365 158.04 271.365 148.399C271.365 138.758 278.93 130.884 288.301 130.884C297.672 130.884 305.188 138.708 305.188 148.399C305.188 158.04 297.623 165.864 288.301 165.864Z" fill="#FFB600"/>
<path d="M363.219 13.7295C363.902 8.47997 358.534 3.12951 349.944 0H16.7895C8.88278 0.706663 3.75812 5.29998 1.4154 13.7295L0 148.803L30.7482 147.339C35.5312 114.984 54.1266 103.425 77.5538 101.86C103.031 104.031 120.992 115.842 122.261 148.803L243.106 148.096C246.962 120.032 261.408 102.971 291.327 101.86C314.949 105.697 332.178 117.962 335.35 148.803L364 148.096L363.317 13.7295H363.219ZM88.0472 72.8368H16.6919V23.3702C17.7168 20.7455 19.3274 18.8274 22.1582 18.4741H88.096V72.8368H88.0472ZM175.46 72.8368H102.104V18.4741H175.46V72.8368ZM263.214 72.8368H189.907V18.4741H263.214V72.8368ZM349.846 72.8368H276.538V18.4741H344.233C347.357 19.4836 348.919 21.6036 349.846 24.8341V72.8368Z" fill="#FFB600"/>
</svg>
