<svg width="110" height="110" viewBox="0 0 110 110" fill="none" xmlns="http://www.w3.org/2000/svg">
<path d="M110 54.9944C110 85.3676 85.3789 109.989 55.0056 109.989C24.6324 109.989 0 85.3676 0 54.9944C0 24.6211 24.6211 0 54.9944 0C85.3676 0 109.989 24.6211 109.989 54.9944H110Z" fill="#FFB600"/>
<path d="M0 54.9944C0 85.3676 24.6211 109.989 54.9944 109.989V0C24.6211 0 0 24.6211 0 54.9944Z" fill="#FFB600"/>
<path d="M97.9657 54.994C97.9657 78.7242 78.7357 97.9542 55.0056 97.9542C31.2754 97.9542 12.0342 78.7242 12.0342 54.994C12.0342 31.2639 31.2754 12.0339 54.9943 12.0339C78.7131 12.0339 97.9544 31.2639 97.9544 54.994H97.9657Z" fill="#FFB600"/>
<path d="M54.7349 12.0454C31.1288 12.192 12.0342 31.3656 12.0342 55.0055C12.0342 78.6454 31.1288 97.819 54.7349 97.9656V12.0454Z" fill="#FFB600"/>
<path d="M78.9275 39.4401H74.2707L67.4145 26.5151H41.7954L34.9393 39.4401H31.0835V56.5059H35.7131V62.8054C35.7131 64.2581 36.8943 65.4393 38.347 65.4393C39.7997 65.4393 40.9808 64.2581 40.9808 62.8054V56.5059H69.1387V62.8054C69.1387 64.2581 70.3199 65.4393 71.7726 65.4393C73.2253 65.4393 74.4064 64.2581 74.4064 62.8054V56.5059H78.9546V39.4401H78.9275ZM43.316 29.0675H65.8668L71.3653 39.4401H37.8039L43.3024 29.0675H43.316ZM39.1208 51.2381C37.2201 51.2381 35.686 49.704 35.686 47.8033C35.686 45.9025 37.2201 44.3684 39.1208 44.3684C41.0216 44.3684 42.5557 45.9025 42.5557 47.8033C42.5557 49.704 41.0216 51.2381 39.1208 51.2381ZM71.2702 51.2381C69.3831 51.2381 67.8354 49.704 67.8354 47.8033C67.8354 45.9025 69.3695 44.3684 71.2702 44.3684C73.171 44.3684 74.7051 45.9025 74.7051 47.8033C74.7051 49.704 73.171 51.2381 71.2702 51.2381Z" fill="black"/>
<path d="M54.6798 39.4401H37.8177L43.3162 29.0675H54.6662V26.5151H41.7685L34.9123 39.4401H31.0565V56.5059H35.6861V62.8054C35.6861 64.2581 36.8673 65.4393 38.32 65.4393C39.7727 65.4393 40.9539 64.2581 40.9539 62.8054V56.5059H54.6662V39.4401H54.6798ZM39.121 51.2381C37.2203 51.2381 35.6861 49.704 35.6861 47.8033C35.6861 45.9025 37.2203 44.3684 39.121 44.3684C41.0217 44.3684 42.5559 45.9025 42.5559 47.8033C42.5559 49.704 41.0217 51.2381 39.121 51.2381Z" fill="#494949"/>
<path d="M60.5923 84.5608L54.382 78.3505L48.1717 84.5608" stroke="#191919" stroke-width="2" stroke-linecap="round" stroke-linejoin="round"/>
<path d="M60.5923 93.2551L54.382 87.0448L48.1717 93.2551" stroke="#191919" stroke-width="2" stroke-linecap="round" stroke-linejoin="round"/>
</svg>
