<svg width="74" height="106" viewBox="0 0 74 106" fill="none" xmlns="http://www.w3.org/2000/svg">
<g clip-path="url(#clip0_20_374)">
<path d="M36.9997 106C47.3026 106 55.6548 104.719 55.6548 103.139C55.6548 101.558 47.3026 100.277 36.9997 100.277C26.6967 100.277 18.3445 101.558 18.3445 103.139C18.3445 104.719 26.6967 106 36.9997 106Z" fill="#E5E1E1"/>
<path d="M74 37.1413C74 48.4289 68.9838 58.5411 61.0672 65.3513L39.0627 102.113C38.2475 103.474 36.2856 103.483 35.4597 102.129L13.1052 65.4994C5.08816 58.6864 0 48.5104 0 37.1413C0 16.6284 16.565 0 36.9996 0C57.4342 0 74 16.6284 74 37.1413Z" fill="#E02230"/>
<path d="M36.9995 64.2804C51.8003 64.2804 63.7986 52.2361 63.7986 37.3787C63.7986 22.5213 51.8003 10.4771 36.9995 10.4771C22.1988 10.4771 10.2004 22.5213 10.2004 37.3787C10.2004 52.2361 22.1988 64.2804 36.9995 64.2804Z" fill="white"/>
</g>
<defs>
<clipPath id="clip0_20_374">
<rect width="74" height="106" fill="white"/>
</clipPath>
</defs>
</svg>
