<svg width="107" height="95" viewBox="0 0 107 95" fill="none" xmlns="http://www.w3.org/2000/svg">
<path d="M4.67603 87.8707L54.176 5.24823L101.166 87.8707H4.67603Z" fill="#F2F0F0"/>
<path d="M54.0962 87.8707H101.166L54.1762 5.24823L54.0962 5.38268V87.8707Z" fill="#E3E4EA"/>
<path d="M106.466 87.9637C90.5461 59.3163 73.6961 30.6586 57.7761 2.00082C56.8061 0.263364 55.2261 -0.222711 53.7661 0.0875497C52.6861 0.201312 51.6461 0.770123 50.9061 2.00082C33.8061 30.6586 17.6561 59.3163 0.556118 87.9637C-1.04388 90.6423 1.02612 94.1586 3.99612 94.1586H103.026C106.056 94.1586 107.966 90.663 106.466 87.9637ZM54.2161 12.1257C67.8861 36.7293 82.4861 61.333 96.1561 85.9263H11.1261C25.8061 61.3227 39.5461 36.719 54.2161 12.1257Z" fill="#D02032"/>
<path d="M54.0961 85.9261H11.1261C25.7661 61.3948 39.4661 36.8636 54.0961 12.3323V0.0459595C53.9861 0.0563015 53.8761 0.0666435 53.7661 0.0976696C52.6861 0.211432 51.6461 0.780243 50.9061 2.01094C33.8061 30.6583 17.6561 59.3161 0.556118 87.9635C-1.04388 90.6421 1.02612 94.1584 3.99612 94.1584H54.0961V85.9261Z" fill="#EC1B36"/>
<path d="M54.0962 65.9145C54.0962 65.9145 56.9562 66.0593 57.6962 56.193C58.5862 44.3721 61.4562 28.9728 54.0962 28.9728C46.7362 28.9728 49.5962 44.3721 50.4962 56.193C51.2762 66.5247 54.0962 65.9145 54.0962 65.9145Z" fill="#383636"/>
<path d="M54.0962 68.6758C51.4562 68.6758 49.3162 70.889 49.3162 73.6193C49.3162 76.3496 51.4562 78.5628 54.0962 78.5628C56.7362 78.5628 58.8762 76.3496 58.8762 73.6193C58.8762 70.889 56.7362 68.6758 54.0962 68.6758Z" fill="#383636"/>
<path d="M54.0962 28.9831C46.7362 28.9831 49.5962 44.3823 50.4962 56.2033C51.2762 66.4936 54.0762 65.9248 54.0962 65.9248V28.9831Z" fill="#545453"/>
<path d="M54.0962 68.6758C51.4562 68.6758 49.3162 70.889 49.3162 73.6193C49.3162 76.3496 51.4562 78.5628 54.0962 78.5628C56.7362 78.5628 58.8762 76.3496 58.8762 73.6193C58.8762 70.889 56.7362 68.6758 54.0962 68.6758Z" fill="#383636"/>
<path d="M54.0962 68.6758C51.4562 68.6758 49.3162 70.889 49.3162 73.6193C49.3162 76.3496 51.4562 78.5628 54.0962 78.5628V68.6758Z" fill="#545453"/>
</svg>
