<svg width="306" height="306" viewBox="0 0 306 306" fill="none" xmlns="http://www.w3.org/2000/svg">
<g clip-path="url(#clip0_10_181)">
<path d="M139.622 5.53972L5.54465 139.617C-1.84457 147.006 -1.84457 158.986 5.54465 166.376L139.622 300.453C147.011 307.842 158.991 307.842 166.381 300.453L300.458 166.376C307.847 158.986 307.847 147.006 300.458 139.617L166.381 5.53971C158.991 -1.84952 147.011 -1.8495 139.622 5.53972Z" fill="url(#paint0_linear_10_181)"/>
<path d="M165.073 286.089L286.092 165.071C292.761 158.402 292.761 147.59 286.092 140.922L165.073 19.903C158.405 13.2344 147.593 13.2344 140.924 19.903L19.9056 140.922C13.2369 147.59 13.2369 158.402 19.9056 165.071L140.924 286.089C147.593 292.758 158.405 292.758 165.073 286.089Z" stroke="black" stroke-width="6.88924" stroke-miterlimit="10"/>
<path d="M196.934 77.5228L138.378 136.079L126.959 124.66L185.515 66.1035L196.934 77.5228Z" fill="black"/>
<path d="M120.485 95.3854L149.767 124.667L138.348 136.087L109.066 106.805L120.485 95.3854Z" fill="black"/>
<path d="M81.894 150.569H104.718V157.36H90.2128V165.845H101.103V172.575H90.2128V188.888H81.894V150.569Z" fill="black"/>
<path d="M106.472 169.732C106.472 156.649 111.728 149.918 120.485 149.918C129.243 149.918 134.446 156.649 134.446 169.732C134.446 182.815 129.19 189.546 120.485 189.546C111.781 189.546 106.472 182.815 106.472 169.732ZM126.067 169.732C126.067 160.755 124.093 156.868 120.485 156.868C116.878 156.868 114.851 160.755 114.851 169.732C114.851 178.709 116.825 182.596 120.485 182.596C124.146 182.596 126.067 178.709 126.067 169.732Z" fill="black"/>
<path d="M157.541 166.389C157.05 159.818 155.19 156.868 152.18 156.868C148.625 156.868 146.704 160.755 146.704 169.732C146.704 178.709 148.618 182.596 152.18 182.596C155.303 182.596 157.163 179.472 157.602 172.523H165.543C164.832 183.692 159.908 189.546 152.134 189.546C143.483 189.546 138.34 182.815 138.34 169.732C138.34 156.649 143.483 149.918 152.134 149.918C159.795 149.918 164.779 155.552 165.543 166.397H157.549L157.541 166.389Z" fill="black"/>
<path d="M169.694 176.788V150.569H177.96V177.552C177.96 180.728 179.873 182.475 182.452 182.475C185.031 182.475 187.05 180.72 187.05 177.657V150.561H195.097V176.886C195.097 184.933 190.173 189.478 182.286 189.478C174.398 189.478 169.694 184.88 169.694 176.78V176.788Z" fill="black"/>
<path d="M198.984 175.805H206.811C207.083 180.728 208.618 182.868 211.9 182.868C214.638 182.868 216.113 181.227 216.113 179.147C216.113 175.918 213.103 174.443 209.654 172.795C204.89 170.549 199.203 168.03 199.203 160.642C199.203 154.289 203.635 149.971 210.698 149.971C218.253 149.971 223.017 154.516 223.562 163.054H215.954C215.568 158.842 213.874 156.649 210.917 156.649C208.512 156.649 207.249 157.965 207.249 159.992C207.249 163.054 210.312 164.537 213.874 166.231C218.586 168.477 224.114 171.048 224.114 178.436C224.114 184.895 219.516 189.493 212.18 189.493C203.967 189.493 199.43 184.675 198.991 175.812L198.984 175.805Z" fill="black"/>
<path d="M125.114 227.192V200.973H133.379V227.955C133.379 231.132 135.293 232.879 137.871 232.879C140.45 232.879 142.469 231.124 142.469 228.061V200.965H150.516V227.29C150.516 235.336 145.593 239.881 137.705 239.881C129.817 239.881 125.114 235.283 125.114 227.184V227.192Z" fill="black"/>
<path d="M155.159 200.973H168.409C176.236 200.973 180.887 205.571 180.887 212.74C180.887 219.909 176.342 224.454 168.567 224.454H163.478V239.284H155.159V200.965V200.973ZM163.485 207.711V217.943H167.698C170.821 217.943 172.734 216.249 172.734 212.853C172.734 209.458 170.821 207.711 167.698 207.711H163.485Z" fill="black"/>
</g>
<defs>
<linearGradient id="paint0_linear_10_181" x1="74.9207" y1="76.5168" x2="191.451" y2="190.665" gradientUnits="userSpaceOnUse">
<stop offset="0.03" stop-color="#FFB600"/>
<stop offset="0.4" stop-color="#FFDC65"/>
<stop offset="1" stop-color="#FFB600"/>
</linearGradient>
<clipPath id="clip0_10_181">
<rect width="306" height="306" fill="white"/>
</clipPath>
</defs>
</svg>
