<svg width="111" height="111" viewBox="0 0 111 111" fill="none" xmlns="http://www.w3.org/2000/svg">
<g clip-path="url(#clip0_20_424)">
<path d="M50.4783 2.0029L2.0046 50.4766C-0.666866 53.1481 -0.666866 57.4794 2.0046 60.1508L50.4783 108.625C53.1498 111.296 57.4811 111.296 60.1526 108.625L108.626 60.1508C111.298 57.4794 111.298 53.1481 108.626 50.4766L60.1526 2.00289C57.4811 -0.668575 53.1498 -0.668568 50.4783 2.0029Z" fill="black"/>
<path d="M59.6799 103.432L103.432 59.6791C105.843 57.2682 105.843 53.3593 103.432 50.9483L59.6799 7.19575C57.2689 4.78481 53.36 4.78481 50.9491 7.19575L7.19652 50.9483C4.78558 53.3593 4.78558 57.2682 7.19652 59.6791L50.9491 103.432C53.36 105.843 57.2689 105.843 59.6799 103.432Z" stroke="#FFB600" stroke-width="2.15174" stroke-miterlimit="10"/>
<path d="M71.1988 28.0272L50.0286 49.1973L45.9001 45.0688L67.0703 23.8987L71.1988 28.0272Z" fill="#FFB600"/>
<path d="M43.5596 34.4851L54.1461 45.0716L50.0176 49.2L39.4312 38.6136L43.5596 34.4851Z" fill="#FFB600"/>
<path d="M29.6077 54.436H37.8592V56.8913H32.6152V59.9589H36.5523V62.3923H32.6152V68.2897H29.6077V54.436Z" fill="#FFB600"/>
<path d="M38.4934 61.3643C38.4934 56.6343 40.3936 54.2009 43.5597 54.2009C46.7258 54.2009 48.6069 56.6343 48.6069 61.3643C48.6069 66.0943 46.7067 68.5276 43.5597 68.5276C40.4128 68.5276 38.4934 66.0943 38.4934 61.3643ZM45.5775 61.3643C45.5775 58.1189 44.8639 56.7136 43.5597 56.7136C42.2555 56.7136 41.5228 58.1189 41.5228 61.3643C41.5228 64.6097 42.2364 66.015 43.5597 66.015C44.883 66.015 45.5775 64.6097 45.5775 61.3643Z" fill="#FFB600"/>
<path d="M56.9568 60.1558C56.7791 57.7799 56.1065 56.7136 55.0183 56.7136C53.7333 56.7136 53.0388 58.1189 53.0388 61.3643C53.0388 64.6097 53.7305 66.015 55.0183 66.015C56.1475 66.015 56.8201 64.8858 56.9787 62.3732H59.8495C59.5925 66.4114 57.8126 68.5276 55.0019 68.5276C51.8741 68.5276 50.0149 66.0943 50.0149 61.3643C50.0149 56.6343 51.8741 54.2009 55.0019 54.2009C57.7715 54.2009 59.5733 56.2378 59.8495 60.1585H56.9595L56.9568 60.1558Z" fill="#FFB600"/>
<path d="M61.3506 63.9152V54.4361H64.339V64.1914C64.339 65.3397 65.0307 65.9713 65.963 65.9713C66.8953 65.9713 67.6254 65.337 67.6254 64.2296V54.4333H70.5344V63.9508C70.5344 66.8598 68.7545 68.503 65.9029 68.503C63.0512 68.503 61.3506 66.8407 61.3506 63.9125V63.9152Z" fill="#FFB600"/>
<path d="M71.9397 63.5597H74.7695C74.8679 65.3396 75.4229 66.1133 76.6095 66.1133C77.5993 66.1133 78.1324 65.52 78.1324 64.7681C78.1324 63.6007 77.0443 63.0675 75.7975 62.4715C74.075 61.6595 72.019 60.749 72.019 58.0778C72.019 55.7811 73.6212 54.22 76.1748 54.22C78.9062 54.22 80.6287 55.8632 80.8255 58.95H78.075C77.9356 57.4271 77.3231 56.6342 76.2541 56.6342C75.3847 56.6342 74.9281 57.1099 74.9281 57.8427C74.9281 58.95 76.0354 59.4859 77.3231 60.0983C79.0265 60.9103 81.0251 61.8399 81.0251 64.5111C81.0251 66.8461 79.3628 68.5084 76.7107 68.5084C73.7415 68.5084 72.101 66.7668 71.9424 63.5624L71.9397 63.5597Z" fill="#FFB600"/>
<path d="M45.2329 82.1379V72.6587H48.2213V82.414C48.2213 83.5623 48.913 84.1939 49.8453 84.1939C50.7777 84.1939 51.5077 83.5596 51.5077 82.4523V72.656H54.4168V82.1734C54.4168 85.0825 52.6369 86.7257 49.7852 86.7257C46.9335 86.7257 45.2329 85.0634 45.2329 82.1351V82.1379Z" fill="#FFB600"/>
<path d="M56.0955 72.6587H60.8856C63.7154 72.6587 65.3969 74.3211 65.3969 76.913C65.3969 79.5049 63.7537 81.1481 60.943 81.1481H59.103V86.5097H56.0955V72.656V72.6587ZM59.1057 75.0948V78.7941H60.6286C61.7578 78.7941 62.4495 78.1816 62.4495 76.954C62.4495 75.7264 61.7578 75.0948 60.6286 75.0948H59.1057Z" fill="#FFB600"/>
</g>
<defs>
<clipPath id="clip0_20_424">
<rect width="110.63" height="110.63" fill="white"/>
</clipPath>
</defs>
</svg>
