<svg width="1188" height="3685" viewBox="0 0 1188 3685" fill="none" xmlns="http://www.w3.org/2000/svg">
<path d="M408 1902C411.5 1994 410.259 1973 410.259 1973H313.773C313.773 1973 313.773 1975.5 311 1902.54C308.227 1829.57 198 1795 169 1730.5C140 1666 137.235 1596.26 137.235 1596.26C137.235 1468.5 237.741 1364.53 361.308 1364.53H552.446C592.038 1364.53 624.264 1331.2 624.264 1290.25C624.264 1194.26 699.78 1116.19 792.568 1116.19H830.872C882.299 1116.19 924.142 1072.92 924.142 1019.74C924.142 966.551 882.299 923.278 830.872 923.278H174.736C78.3787 923.278 0 842.219 0 742.568C0 642.916 78.3787 561.858 174.736 561.858H1028.09C1062.95 561.858 1091.35 532.521 1091.35 496.432C1091.35 460.344 1062.99 431.007 1028.09 431.007H937.489C849.398 431.007 777.741 356.9 777.741 265.797V0H874.227V265.797C874.227 301.853 902.594 331.223 937.489 331.223H1028.09C1116.18 331.223 1187.84 405.329 1187.84 496.432C1187.84 587.536 1116.18 661.643 1028.09 661.643H174.736C131.575 661.643 96.4859 697.964 96.4859 742.568C96.4859 787.172 131.607 823.493 174.736 823.493H830.84C935.463 823.493 1020.6 911.536 1020.6 1019.74C1020.6 1127.94 935.463 1215.98 830.84 1215.98H792.535C752.944 1215.98 720.718 1249.31 720.718 1290.25C720.718 1386.24 645.201 1464.31 552.414 1464.31H361.275C290.937 1464.31 233.689 1523.48 233.689 1596.26C233.689 1596.26 230.5 1670.5 269.5 1713.5C308.5 1756.5 404.5 1810 408 1902Z" fill="#231F20"/>
<path d="M954.279 3684.21H1050.76V3552.26C1050.76 3424.5 950.259 3320.52 826.692 3320.52H635.554C595.962 3320.52 563.736 3287.2 563.736 3246.25C563.736 3150.26 488.22 3072.19 395.432 3072.19H357.128C305.701 3072.19 263.858 3028.92 263.858 2975.74C263.858 2922.55 305.701 2879.28 357.128 2879.28H1013.26C1109.62 2879.28 1188 2798.22 1188 2698.57C1188 2598.92 1109.62 2517.86 1013.26 2517.86H159.91C125.047 2517.86 96.6477 2488.52 96.6477 2452.43C96.6477 2416.34 125.015 2387.01 159.91 2387.01H250.511C338.602 2387.01 410.259 2312.9 410.259 2221.8V1973H313.773V2221.8C313.773 2257.85 285.406 2287.22 250.511 2287.22H159.91C71.8186 2287.22 0.161865 2361.33 0.161865 2452.43C0.161865 2543.54 71.8186 2617.64 159.91 2617.64H1013.26C1056.43 2617.64 1091.51 2653.96 1091.51 2698.57C1091.51 2743.17 1056.39 2779.49 1013.26 2779.49H357.16C252.537 2779.49 167.404 2867.54 167.404 2975.74C167.404 3083.94 252.537 3171.98 357.16 3171.98H395.465C435.056 3171.98 467.282 3205.31 467.282 3246.25C467.282 3342.24 542.799 3420.31 635.586 3420.31H826.724C897.063 3420.31 954.311 3479.48 954.311 3552.26V3684.21H954.279Z" fill="#231F20"/>
</svg>
