<?xml version="1.0" encoding="UTF-8"?>
<svg id="Layer_1" xmlns="http://www.w3.org/2000/svg" version="1.1" viewBox="0 0 1188 3685">
  <!-- Generator: Adobe Illustrator 30.1.0, SVG Export Plug-In . SVG Version: 2.1.1 Build 136)  -->
  <defs>
    <style>
      .st0 {
        fill: none;
        stroke: #ffb600;
        stroke-miterlimit: 10;
        stroke-width: 4px;
      }
    </style>
  </defs>
  <path class="st0" d="M825.99,0v265.8c0,63.58,50.01,115.32,111.51,115.32h90.6c61.5,0,111.51,51.72,111.51,115.32s-50.03,115.32-111.51,115.32H174.74c-69.76,0-126.49,58.69-126.49,130.82s56.75,130.82,126.49,130.82h656.12c78.02,0,141.51,65.66,141.51,146.35s-63.49,146.34-141.51,146.34h-38.3c-66.19,0-120.06,55.7-120.06,124.17s-53.87,124.17-120.06,124.17h-191.14c-96.95,0-175.83,81.57-175.83,181.84,0,0-.21,71.99,33.79,125.74s137.11,97.78,140.25,180.27c3.11,81.91,2.52,70.76,2.52,70.73v248.8c0,63.57-50.01,115.31-111.51,115.31h-90.6c-61.49,0-111.51,51.72-111.51,115.31s50.03,115.32,111.51,115.32h853.35c69.77,0,126.49,58.69,126.49,130.82s-56.75,130.81-126.49,130.81H357.15c-78.03,0-141.51,65.66-141.51,146.35s63.49,146.34,141.51,146.34h38.3c66.19,0,120.06,55.7,120.06,124.17s53.87,124.17,120.06,124.17h191.14c96.95,0,175.83,81.57,175.83,181.84v131.95"/>
</svg>