<svg width="98" height="192" viewBox="0 0 98 192" fill="none" xmlns="http://www.w3.org/2000/svg">
<g clip-path="url(#clip0_10_594)">
<path d="M48.95 191.95C66.1923 191.95 80.17 191.332 80.17 190.57C80.17 189.808 66.1923 189.19 48.95 189.19C31.7077 189.19 17.73 189.808 17.73 190.57C17.73 191.332 31.7077 191.95 48.95 191.95Z" fill="#888787"/>
<path d="M56.24 94.37H41.2V189.8H56.24V94.37Z" fill="#C9C9CB"/>
<path d="M48.72 94.37H41.2V189.8H48.72V94.37Z" fill="#F2F0F0"/>
<path d="M97.7099 48.76C97.7099 75.69 75.8799 97.52 48.9499 97.52C22.0199 97.52 0.189941 75.69 0.189941 48.76C0.189941 21.83 22.0199 0 48.9499 0C75.8799 0 97.7099 21.83 97.7099 48.76Z" fill="#D02032"/>
<path d="M0 48.76C0 75.69 21.83 97.52 48.76 97.52V0C21.83 0 0 21.83 0 48.76Z" fill="#EC1B36"/>
<path d="M87.0401 48.76C87.0401 69.8 69.9901 86.85 48.9501 86.85C27.9101 86.85 10.8601 69.8 10.8601 48.76C10.8601 27.72 27.9101 10.67 48.9501 10.67C69.9901 10.67 87.0401 27.72 87.0401 48.76Z" fill="#E3E4EA"/>
<path d="M48.7101 10.68C27.7801 10.81 10.8501 27.81 10.8501 48.77C10.8501 69.73 27.7801 86.73 48.7101 86.86V10.68Z" fill="#F2F0F0"/>
<path d="M62.8701 43.24C60.9501 43.24 59.1601 43.82 57.6701 44.82L55.1001 41.09L57.4201 37.66L55.8601 36.61L53.4401 40.19H40.1901V35.49H38.3101V40.93L37.1801 43.5C36.4801 43.34 35.7601 43.24 35.0201 43.24C29.8401 43.24 25.6201 47.46 25.6201 52.64C25.6201 57.82 29.8401 62.04 35.0201 62.04C40.2001 62.04 44.4201 57.82 44.4201 52.64C44.4201 48.87 42.1801 45.61 38.9601 44.12L39.7201 42.38L49.2301 54.99H53.7701C54.8201 59.04 58.4901 62.04 62.8601 62.04C68.0401 62.04 72.2601 57.82 72.2601 52.64C72.2601 47.46 68.0401 43.24 62.8601 43.24H62.8701ZM42.5501 52.64C42.5501 56.79 39.1801 60.16 35.0301 60.16C30.8801 60.16 27.5101 56.79 27.5101 52.64C27.5101 48.49 30.8801 45.12 35.0301 45.12C35.5101 45.12 35.9701 45.17 36.4201 45.25L33.3401 52.26L35.0601 53.01L38.2101 45.83C40.7601 47.03 42.5401 49.63 42.5401 52.63L42.5501 52.64ZM55.3501 52.64C55.3501 50.71 56.0901 48.95 57.2901 47.62L61.0801 53.11H55.3801C55.3701 52.95 55.3601 52.8 55.3601 52.64H55.3501ZM41.8501 42.07H52.8801L49.7501 52.54L41.8501 42.07ZM51.5401 53.11L54.3001 43.3L56.1901 46.03C54.5101 47.73 53.4701 50.06 53.4701 52.63C53.4701 52.79 53.4901 52.94 53.4901 53.1H51.5301L51.5401 53.11ZM62.8701 60.16C59.5401 60.16 56.7201 57.99 55.7301 54.99H64.6601L58.7301 46.37C59.9201 45.58 61.3401 45.12 62.8701 45.12C67.0201 45.12 70.3901 48.49 70.3901 52.64C70.3901 56.79 67.0201 60.16 62.8701 60.16Z" fill="#383636"/>
<path d="M48.9501 54.6V51.48L41.8501 42.07H48.9501V40.19H40.2001V35.49H38.3201V40.93L37.1901 43.5C36.4901 43.34 35.7701 43.24 35.0301 43.24C29.8501 43.24 25.6301 47.46 25.6301 52.64C25.6301 57.82 29.8501 62.04 35.0301 62.04C40.2101 62.04 44.4301 57.82 44.4301 52.64C44.4301 48.87 42.1901 45.61 38.9701 44.12L39.7301 42.38L48.9501 54.6ZM42.5501 52.64C42.5501 56.79 39.1801 60.16 35.0301 60.16C30.8801 60.16 27.5101 56.79 27.5101 52.64C27.5101 48.49 30.8801 45.12 35.0301 45.12C35.5101 45.12 35.9701 45.17 36.4201 45.25L33.3401 52.26L35.0601 53.01L38.2101 45.83C40.7601 47.03 42.5401 49.63 42.5401 52.63L42.5501 52.64Z" fill="#545453"/>
</g>
<defs>
<clipPath id="clip0_10_594">
<rect width="97.71" height="191.95" fill="white"/>
</clipPath>
</defs>
</svg>
