<svg width="98" height="192" viewBox="0 0 98 192" fill="none" xmlns="http://www.w3.org/2000/svg">
<g clip-path="url(#clip0_10_611)">
<path d="M48.76 191.95C66.0024 191.95 79.98 191.332 79.98 190.57C79.98 189.808 66.0024 189.19 48.76 189.19C31.5177 189.19 17.54 189.808 17.54 190.57C17.54 191.332 31.5177 191.95 48.76 191.95Z" fill="#888787"/>
<path d="M56.05 94.3701H41.01V189.8H56.05V94.3701Z" fill="#C9C9CB"/>
<path d="M48.53 94.3701H41.01V189.8H48.53V94.3701Z" fill="#F2F0F0"/>
<path d="M97.53 48.76C97.53 75.69 75.7 97.52 48.77 97.52C21.84 97.52 0 75.69 0 48.76C0 21.83 21.83 0 48.76 0C75.69 0 97.52 21.83 97.52 48.76H97.53Z" fill="#D02032"/>
<path d="M0 48.76C0 75.69 21.83 97.52 48.76 97.52V0C21.83 0 0 21.83 0 48.76Z" fill="#EC1B36"/>
<path d="M86.8599 48.7599C86.8599 69.7999 69.8099 86.8499 48.7699 86.8499C27.7299 86.8499 10.6699 69.7999 10.6699 48.7599C10.6699 27.7199 27.7299 10.6699 48.7599 10.6699C69.7899 10.6699 86.8499 27.7199 86.8499 48.7599H86.8599Z" fill="#E3E4EA"/>
<path d="M48.5299 10.6799C27.5999 10.8099 10.6699 27.8099 10.6699 48.7699C10.6699 69.7299 27.5999 86.7299 48.5299 86.8599V10.6799Z" fill="#F2F0F0"/>
<path d="M66.3899 43.9499H62.9599L57.9099 34.4299H39.0399L33.9899 43.9499H31.1499V56.5199H34.5599V61.1599C34.5599 62.2299 35.4299 63.0999 36.4999 63.0999C37.5699 63.0999 38.4399 62.2299 38.4399 61.1599V56.5199H59.1799V61.1599C59.1799 62.2299 60.0499 63.0999 61.1199 63.0999C62.1899 63.0999 63.0599 62.2299 63.0599 61.1599V56.5199H66.4099V43.9499H66.3899ZM40.1599 36.3099H56.7699L60.8199 43.9499H36.0999L40.1499 36.3099H40.1599ZM37.0699 52.6399C35.6699 52.6399 34.5399 51.5099 34.5399 50.1099C34.5399 48.7099 35.6699 47.5799 37.0699 47.5799C38.4699 47.5799 39.5999 48.7099 39.5999 50.1099C39.5999 51.5099 38.4699 52.6399 37.0699 52.6399ZM60.7499 52.6399C59.3599 52.6399 58.2199 51.5099 58.2199 50.1099C58.2199 48.7099 59.3499 47.5799 60.7499 47.5799C62.1499 47.5799 63.2799 48.7099 63.2799 50.1099C63.2799 51.5099 62.1499 52.6399 60.7499 52.6399Z" fill="#383636"/>
<path d="M48.5299 43.9499H36.1099L40.1599 36.3099H48.5199V34.4299H39.0199L33.9699 43.9499H31.1299V56.5199H34.5399V61.1599C34.5399 62.2299 35.4099 63.0999 36.4799 63.0999C37.5499 63.0999 38.4199 62.2299 38.4199 61.1599V56.5199H48.5199V43.9499H48.5299ZM37.0699 52.6399C35.6699 52.6399 34.5399 51.5099 34.5399 50.1099C34.5399 48.7099 35.6699 47.5799 37.0699 47.5799C38.4699 47.5799 39.5999 48.7099 39.5999 50.1099C39.5999 51.5099 38.4699 52.6399 37.0699 52.6399Z" fill="#545453"/>
</g>
<defs>
<clipPath id="clip0_10_611">
<rect width="97.53" height="191.95" fill="white"/>
</clipPath>
</defs>
</svg>
