<svg width="98" height="192" viewBox="0 0 98 192" fill="none" xmlns="http://www.w3.org/2000/svg">
<g clip-path="url(#clip0_10_628)">
<path d="M49.2 191.95C66.4423 191.95 80.42 191.332 80.42 190.57C80.42 189.808 66.4423 189.19 49.2 189.19C31.9577 189.19 17.98 189.808 17.98 190.57C17.98 191.332 31.9577 191.95 49.2 191.95Z" fill="#888787"/>
<path d="M56.4001 94.3701H41.3601V189.8H56.4001V94.3701Z" fill="#C9C9CB"/>
<path d="M48.8801 94.3701H41.3601V189.8H48.8801V94.3701Z" fill="#F2F0F0"/>
<path d="M97.8801 48.76C97.8801 75.69 76.0501 97.52 49.1201 97.52C22.1901 97.52 0.350098 75.69 0.350098 48.76C0.350098 21.83 22.1801 0 49.1201 0C76.0601 0 97.8801 21.83 97.8801 48.76Z" fill="#D02032"/>
<path d="M0 48.76C0 75.69 21.83 97.52 48.76 97.52V0C21.83 0 0 21.83 0 48.76Z" fill="#EC1B36"/>
<path d="M87.21 48.7599C87.21 69.7999 70.16 86.8499 49.12 86.8499C28.08 86.8499 11.03 69.7999 11.03 48.7599C11.03 27.7199 28.08 10.6699 49.12 10.6699C70.16 10.6699 87.21 27.7199 87.21 48.7599Z" fill="#E3E4EA"/>
<path d="M48.88 10.6799C27.95 10.8099 11.02 27.8099 11.02 48.7699C11.02 69.7299 27.95 86.7299 48.88 86.8599V10.6799Z" fill="#F2F0F0"/>
<path d="M72.69 33.8201H40.4199L40.11 35.8601H34L32.2799 42.4401H29.4599L25.7 51.0601H30.4599C30.2299 51.5601 30.1 52.1201 30.1 52.7101C30.1 53.9401 30.66 55.0201 31.52 55.7601H25.7V57.6401H72.69V55.7601H66.5299C67.3899 55.0201 67.9499 53.9301 67.9499 52.7101C67.9499 52.1201 67.8199 51.5701 67.5899 51.0601H72.68V33.8301L72.69 33.8201ZM35.43 37.3701H40.95V43.0701H34.43L35.43 37.3701ZM36.75 55.7501C37.61 55.0101 38.1699 53.9201 38.1699 52.7001C38.1699 52.1101 38.04 51.5601 37.81 51.0501H60.2299C60 51.5501 59.8699 52.1101 59.8699 52.7001C59.8699 53.9301 60.43 55.0101 61.29 55.7501H36.74H36.75Z" fill="black"/>
<path d="M40.11 35.8601H34L32.2799 42.4401H29.4599L25.7 51.0601H30.4599C30.2299 51.5601 30.1 52.1201 30.1 52.7101C30.1 53.9401 30.66 55.0201 31.52 55.7601H25.7V57.6401H49.2V55.7601H36.7599C37.6199 55.0201 38.18 53.9301 38.18 52.7101C38.18 52.1201 38.0499 51.5701 37.82 51.0601H49.2V33.8301H40.43L40.1199 35.8701L40.11 35.8601ZM40.95 43.0601H34.43L35.43 37.3601H40.95V43.0601Z" fill="#545453"/>
</g>
<defs>
<clipPath id="clip0_10_628">
<rect width="97.88" height="191.95" fill="white"/>
</clipPath>
</defs>
</svg>
